<?xml version="1.0" encoding="utf-8"?>
<svg viewBox="55.416 34.594 161.107 150.982" xmlns="http://www.w3.org/2000/svg">
  <path d="M 146.535 113.386 C 156.513 113.386 164.069 111.699 169.205 108.324 C 174.413 104.949 177.86 100.841 179.547 95.999 C 181.308 91.156 182.445 83.088 182.959 71.789 C 183.472 59.244 186.26 49.928 191.323 43.839 C 196.457 37.675 204.858 34.594 216.523 34.594 L 216.523 38.776 C 212.341 39.069 209.48 40.72 207.939 43.728 C 206.472 46.662 205.738 52.935 205.738 62.547 C 205.738 76.632 204.235 87.526 201.227 95.229 C 198.292 102.86 192.35 109.058 183.4 113.826 C 174.449 118.595 162.161 121.163 146.534 121.53 L 146.534 156.413 C 146.534 164.997 147.011 170.572 147.963 173.141 C 148.991 175.635 151.082 177.653 154.236 179.194 C 157.464 180.734 162.416 181.504 169.092 181.504 L 169.092 185.576 L 102.847 185.576 L 102.847 181.504 C 109.376 181.429 114.218 180.733 117.373 179.414 C 120.601 178.019 122.729 176.037 123.756 173.47 C 124.856 170.83 125.405 165.143 125.405 156.413 L 125.405 121.53 C 109.632 121.164 97.381 118.631 88.651 113.937 C 79.92 109.24 73.979 103.116 70.823 95.558 C 67.742 87.929 66.201 76.888 66.201 62.435 C 66.201 53.191 65.504 47.065 64.109 44.057 C 62.715 40.976 59.817 39.215 55.416 38.775 L 55.416 34.594 C 62.826 34.739 68.805 35.913 73.353 38.115 C 77.901 40.316 81.533 44.204 84.247 49.779 C 87.036 55.355 88.612 62.691 88.98 71.788 C 89.493 83.013 90.556 91.046 92.171 95.888 C 93.857 100.73 97.342 104.875 102.624 108.322 C 107.906 111.698 115.5 113.385 125.404 113.385 L 125.404 65.406 C 125.404 56.823 124.889 51.282 123.862 48.789 C 122.908 46.221 120.856 44.204 117.699 42.737 C 114.546 41.269 109.593 40.499 102.843 40.425 L 102.843 36.353 L 169.089 36.353 L 169.089 40.425 C 162.34 40.501 157.389 41.27 154.233 42.737 C 151.079 44.131 148.988 46.111 147.96 48.679 C 147.007 51.247 146.532 56.823 146.532 65.406 L 146.535 113.386 Z" style=""/>
</svg>